<svg version="1.1" xmlns="http://www.w3.org/2000/svg" xmlns:xlink="http://www.w3.org/1999/xlink" width="556" height="508"><defs/><g><g transform="translate(-102,-246) scale(1,1)"><rect fill="#ffffff" stroke="none" x="112" y="256" width="248" height="21"/></g><g transform="translate(-102,-246) scale(1,1)"><path fill="none" stroke="#000000" d="M 112 256 L 360 256 L 360 277 L 112 277 L 112 256 Z Z" stroke-miterlimit="10" stroke-width="2"/></g><g transform="translate(-102,-246) scale(1,1)"><path fill="none" stroke="#000000" d="M 112 555 L 112 256 L 360 256 L 360 555" stroke-miterlimit="10" stroke-width="2"/></g><g transform="translate(-102,-246) scale(1,1)"><g><path fill="none" stroke="none"/><text fill="#000000" stroke="none" font-family="Arial" font-size="13px" font-style="normal" font-weight="normal" text-decoration="none" x="209.304931640625" y="273">Заказчик</text></g></g><g transform="translate(-102,-246) scale(1,1)"><rect fill="#ffffff" stroke="none" x="360" y="256" width="288" height="21"/></g><g transform="translate(-102,-246) scale(1,1)"><path fill="none" stroke="#000000" d="M 360 256 L 648 256 L 648 277 L 360 277 L 360 256 Z Z" stroke-miterlimit="10" stroke-width="2"/></g><g transform="translate(-102,-246) scale(1,1)"><path fill="none" stroke="#000000" d="M 360 744 L 360 256 L 648 256 L 648 744" stroke-miterlimit="10" stroke-width="2"/></g><g transform="translate(-102,-246) scale(1,1)"><g><path fill="none" stroke="none"/><text fill="#000000" stroke="none" font-family="Arial" font-size="13px" font-style="normal" font-weight="normal" text-decoration="none" x="477.873046875" y="273">Фабрика</text></g></g><g transform="translate(-102,-246) scale(1,1)"><path fill="#C0C0C0" stroke="none" d="M 231 312.5 C 231 307.2532944 235.2532944 303 240.5 303 C 245.7467056 303 250 307.2532944 250 312.5 C 250 317.7467056 245.7467056 322 240.5 322 C 235.2532944 322 231 317.7467056 231 312.5 Z" opacity="0.2"/></g><g transform="translate(-102,-246) scale(1,1)"><path fill="#000000" stroke="none" d="M 224 305.5 C 224 300.2532944 228.2532944 296 233.5 296 C 238.7467056 296 243 300.2532944 243 305.5 C 243 310.7467056 238.7467056 315 233.5 315 C 228.2532944 315 224 310.7467056 224 305.5 Z"/></g><g transform="translate(-102,-246) scale(1,1)"><path fill="#C0C0C0" stroke="none" d="M 217 375 L 256 375 Q 266 375 266 385 L 266 405 Q 266 415 256 415 L 217 415 Q 207 415 207 405 L 207 385 Q 207 375 217 375 Z" opacity="0.2"/></g><g transform="translate(-102,-246) scale(1,1)"><path fill="#ffffff" stroke="none" d="M 210 368 L 249 368 Q 259 368 259 378 L 259 398 Q 259 408 249 408 L 210 408 Q 200 408 200 398 L 200 378 Q 200 368 210 368 Z"/></g><g transform="translate(-102,-246) scale(1,1)"><path fill="none" stroke="#000000" d="M 210 368 L 249 368 Q 259 368 259 378 L 259 398 Q 259 408 249 408 L 210 408 Q 200 408 200 398 L 200 378 Q 200 368 210 368 Z" stroke-miterlimit="10"/></g><g transform="translate(-102,-246) scale(1,1)"><g><path fill="none" stroke="none"/><text fill="#000000" stroke="none" font-family="Arial" font-size="13px" font-style="normal" font-weight="bold" text-decoration="none" x="212.4501953125" y="387.5">Заказ</text></g></g><g transform="translate(-102,-246) scale(1,1)"><path fill="#C0C0C0" stroke="none" d="M 217 479 L 256 479 Q 266 479 266 489 L 266 509 Q 266 519 256 519 L 217 519 Q 207 519 207 509 L 207 489 Q 207 479 217 479 Z" opacity="0.2"/></g><g transform="translate(-102,-246) scale(1,1)"><path fill="#ffffff" stroke="none" d="M 210 472 L 249 472 Q 259 472 259 482 L 259 502 Q 259 512 249 512 L 210 512 Q 200 512 200 502 L 200 482 Q 200 472 210 472 Z"/></g><g transform="translate(-102,-246) scale(1,1)"><path fill="none" stroke="#000000" d="M 210 472 L 249 472 Q 259 472 259 482 L 259 502 Q 259 512 249 512 L 210 512 Q 200 512 200 502 L 200 482 Q 200 472 210 472 Z" stroke-miterlimit="10"/></g><g transform="translate(-102,-246) scale(1,1)"><g><path fill="none" stroke="none"/><text fill="#000000" stroke="none" font-family="Arial" font-size="13px" font-style="normal" font-weight="bold" text-decoration="none" x="207.819580078125" y="491.5">Action1</text></g></g><g transform="translate(-102,-246) scale(1,1)"><path fill="none" stroke="#000000" d="M 229 409 L 229 471" stroke-miterlimit="10"/></g><g transform="translate(-102,-246) scale(1,1)"><path fill="none" stroke="#000000" d="M 224.790482243984 460.83732514237585 L 229 471 L 233.209517756016 460.83732514237585" stroke-miterlimit="10"/></g><g transform="translate(-102,-246) scale(1,1)"><path fill="#C0C0C0" stroke="none" d="M 217 589 L 256 589 Q 266 589 266 599 L 266 619 Q 266 629 256 629 L 217 629 Q 207 629 207 619 L 207 599 Q 207 589 217 589 Z" opacity="0.2"/></g><g transform="translate(-102,-246) scale(1,1)"><path fill="#ffffff" stroke="none" d="M 210 582 L 249 582 Q 259 582 259 592 L 259 612 Q 259 622 249 622 L 210 622 Q 200 622 200 612 L 200 592 Q 200 582 210 582 Z"/></g><g transform="translate(-102,-246) scale(1,1)"><path fill="none" stroke="#000000" d="M 210 582 L 249 582 Q 259 582 259 592 L 259 612 Q 259 622 249 622 L 210 622 Q 200 622 200 612 L 200 592 Q 200 582 210 582 Z" stroke-miterlimit="10"/></g><g transform="translate(-102,-246) scale(1,1)"><g><path fill="none" stroke="none"/><text fill="#000000" stroke="none" font-family="Arial" font-size="13px" font-style="normal" font-weight="bold" text-decoration="none" x="207.819580078125" y="601.5">Action2</text></g></g><g transform="translate(-102,-246) scale(1,1)"><path fill="none" stroke="#000000" d="M 229 513 L 229 581" stroke-miterlimit="10"/></g><g transform="translate(-102,-246) scale(1,1)"><path fill="none" stroke="#000000" d="M 224.790482243984 570.8373251423759 L 229 581 L 233.209517756016 570.8373251423759" stroke-miterlimit="10"/></g><g transform="translate(-102,-246) scale(1,1)"><path fill="#C0C0C0" stroke="none" d="M 481 583 L 520 583 Q 530 583 530 593 L 530 613 Q 530 623 520 623 L 481 623 Q 471 623 471 613 L 471 593 Q 471 583 481 583 Z" opacity="0.2"/></g><g transform="translate(-102,-246) scale(1,1)"><path fill="#ffffff" stroke="none" d="M 474 576 L 513 576 Q 523 576 523 586 L 523 606 Q 523 616 513 616 L 474 616 Q 464 616 464 606 L 464 586 Q 464 576 474 576 Z"/></g><g transform="translate(-102,-246) scale(1,1)"><path fill="none" stroke="#000000" d="M 474 576 L 513 576 Q 523 576 523 586 L 523 606 Q 523 616 513 616 L 474 616 Q 464 616 464 606 L 464 586 Q 464 576 474 576 Z" stroke-miterlimit="10"/></g><g transform="translate(-102,-246) scale(1,1)"><g><path fill="none" stroke="none"/><text fill="#000000" stroke="none" font-family="Arial" font-size="13px" font-style="normal" font-weight="bold" text-decoration="none" x="471.819580078125" y="595.5">Action3</text></g></g><g transform="translate(-102,-246) scale(1,1)"><path fill="none" stroke="#000000" d="M 260 601 L 463 597" stroke-miterlimit="10"/></g><g transform="translate(-102,-246) scale(1,1)"><path fill="none" stroke="#000000" d="M 452.92222753683876 601.4089116775855 L 463 597 L 452.75636740717044 592.9915100969168" stroke-miterlimit="10"/></g></g></svg>