<svg version="1.1" xmlns="http://www.w3.org/2000/svg" xmlns:xlink="http://www.w3.org/1999/xlink" width="672.3466796875" height="403"><defs/><g><g transform="translate(-110,-78) scale(1,1)"><path fill="#ffffff" stroke="none" d="M 216.46135227272728 97.68 C 216.46135227272728 92.886167936 220.34719459767274 89 225.140625 89 C 229.93405540232726 89 233.81989772727272 92.886167936 233.81989772727272 97.68 C 233.81989772727272 102.473832064 229.93405540232726 106.36 225.140625 106.36 C 220.34719459767274 106.36 216.46135227272728 102.473832064 216.46135227272728 97.68 Z"/></g><g transform="translate(-110,-78) scale(1,1)"><path fill="none" stroke="#000000" d="M 216.46135227272728 97.68 C 216.46135227272728 92.886167936 220.34719459767274 89 225.140625 89 C 229.93405540232726 89 233.81989772727272 92.886167936 233.81989772727272 97.68 C 233.81989772727272 102.473832064 229.93405540232726 106.36 225.140625 106.36 C 220.34719459767274 106.36 216.46135227272728 102.473832064 216.46135227272728 97.68 Z" stroke-miterlimit="10"/></g><g transform="translate(-110,-78) scale(1,1)"><path fill="none" stroke="#000000" d="M 225.140625 106.36 L 225.140625 123.64" stroke-miterlimit="10"/></g><g transform="translate(-110,-78) scale(1,1)"><path fill="none" stroke="#000000" d="M 215.95080681818183 112.84 L 234.33044318181817 112.84" stroke-miterlimit="10"/></g><g transform="translate(-110,-78) scale(1,1)"><path fill="none" stroke="#000000" d="M 225.140625 123.64 L 212.37698863636365 141" stroke-miterlimit="10"/></g><g transform="translate(-110,-78) scale(1,1)"><path fill="none" stroke="#000000" d="M 225.140625 123.64 L 237.90426136363635 141" stroke-miterlimit="10"/></g><g transform="translate(-110,-78) scale(1,1)"><g><path fill="none" stroke="none"/><text fill="#000000" stroke="none" font-family="Arial" font-size="13px" font-style="normal" font-weight="bold" text-decoration="none" x="198.445556640625" y="161.5">Заказчик</text></g></g><g transform="translate(-110,-78) scale(1,1)"><path fill="#ffffff" stroke="none" d="M 175.83293430397728 233.68 C 175.83293430397728 228.886167936 179.71877662892274 225 184.51220703125 225 C 189.30563743357726 225 193.19147975852272 228.886167936 193.19147975852272 233.68 C 193.19147975852272 238.47383206400002 189.30563743357726 242.36 184.51220703125 242.36 C 179.71877662892274 242.36 175.83293430397728 238.47383206400002 175.83293430397728 233.68 Z"/></g><g transform="translate(-110,-78) scale(1,1)"><path fill="none" stroke="#000000" d="M 175.83293430397728 233.68 C 175.83293430397728 228.886167936 179.71877662892274 225 184.51220703125 225 C 189.30563743357726 225 193.19147975852272 228.886167936 193.19147975852272 233.68 C 193.19147975852272 238.47383206400002 189.30563743357726 242.36 184.51220703125 242.36 C 179.71877662892274 242.36 175.83293430397728 238.47383206400002 175.83293430397728 233.68 Z" stroke-miterlimit="10"/></g><g transform="translate(-110,-78) scale(1,1)"><path fill="none" stroke="#000000" d="M 184.51220703125 242.36 L 184.51220703125 259.64" stroke-miterlimit="10"/></g><g transform="translate(-110,-78) scale(1,1)"><path fill="none" stroke="#000000" d="M 175.32238884943183 248.84 L 193.70202521306817 248.84" stroke-miterlimit="10"/></g><g transform="translate(-110,-78) scale(1,1)"><path fill="none" stroke="#000000" d="M 184.51220703125 259.64 L 171.74857066761365 277" stroke-miterlimit="10"/></g><g transform="translate(-110,-78) scale(1,1)"><path fill="none" stroke="#000000" d="M 184.51220703125 259.64 L 197.27584339488635 277" stroke-miterlimit="10"/></g><g transform="translate(-110,-78) scale(1,1)"><g><path fill="none" stroke="none"/><text fill="#000000" stroke="none" font-family="Arial" font-size="13px" font-style="normal" font-weight="bold" text-decoration="none" x="158.38525390625" y="297.5">Фабрика</text></g></g><g transform="translate(-110,-78) scale(1,1)"><path fill="#ffffff" stroke="none" d="M 180.48430149147728 401.68 C 180.48430149147728 396.886167936 184.37014381642274 393 189.16357421875 393 C 193.95700462107726 393 197.84284694602272 396.886167936 197.84284694602272 401.68 C 197.84284694602272 406.473832064 193.95700462107726 410.36 189.16357421875 410.36 C 184.37014381642274 410.36 180.48430149147728 406.473832064 180.48430149147728 401.68 Z"/></g><g transform="translate(-110,-78) scale(1,1)"><path fill="none" stroke="#000000" d="M 180.48430149147728 401.68 C 180.48430149147728 396.886167936 184.37014381642274 393 189.16357421875 393 C 193.95700462107726 393 197.84284694602272 396.886167936 197.84284694602272 401.68 C 197.84284694602272 406.473832064 193.95700462107726 410.36 189.16357421875 410.36 C 184.37014381642274 410.36 180.48430149147728 406.473832064 180.48430149147728 401.68 Z" stroke-miterlimit="10"/></g><g transform="translate(-110,-78) scale(1,1)"><path fill="none" stroke="#000000" d="M 189.16357421875 410.36 L 189.16357421875 427.64" stroke-miterlimit="10"/></g><g transform="translate(-110,-78) scale(1,1)"><path fill="none" stroke="#000000" d="M 179.97375603693183 416.84 L 198.35339240056817 416.84" stroke-miterlimit="10"/></g><g transform="translate(-110,-78) scale(1,1)"><path fill="none" stroke="#000000" d="M 189.16357421875 427.64 L 176.39993785511365 445" stroke-miterlimit="10"/></g><g transform="translate(-110,-78) scale(1,1)"><path fill="none" stroke="#000000" d="M 189.16357421875 427.64 L 201.92721058238635 445" stroke-miterlimit="10"/></g><g transform="translate(-110,-78) scale(1,1)"><g><path fill="none" stroke="none"/><text fill="#000000" stroke="none" font-family="Arial" font-size="13px" font-style="normal" font-weight="bold" text-decoration="none" x="129.375" y="465.5">Сотрудник фабрики</text></g></g><g transform="translate(-110,-78) scale(1,1)"><path fill="#ffffff" stroke="none" d="M 721.4940671164773 193.68 C 721.4940671164773 188.886167936 725.3799094414227 185 730.17333984375 185 C 734.9667702460773 185 738.8526125710227 188.886167936 738.8526125710227 193.68 C 738.8526125710227 198.47383206400002 734.9667702460773 202.36 730.17333984375 202.36 C 725.3799094414227 202.36 721.4940671164773 198.47383206400002 721.4940671164773 193.68 Z"/></g><g transform="translate(-110,-78) scale(1,1)"><path fill="none" stroke="#000000" d="M 721.4940671164773 193.68 C 721.4940671164773 188.886167936 725.3799094414227 185 730.17333984375 185 C 734.9667702460773 185 738.8526125710227 188.886167936 738.8526125710227 193.68 C 738.8526125710227 198.47383206400002 734.9667702460773 202.36 730.17333984375 202.36 C 725.3799094414227 202.36 721.4940671164773 198.47383206400002 721.4940671164773 193.68 Z" stroke-miterlimit="10"/></g><g transform="translate(-110,-78) scale(1,1)"><path fill="none" stroke="#000000" d="M 730.17333984375 202.36 L 730.17333984375 219.64" stroke-miterlimit="10"/></g><g transform="translate(-110,-78) scale(1,1)"><path fill="none" stroke="#000000" d="M 720.9835216619318 208.84 L 739.3631580255682 208.84" stroke-miterlimit="10"/></g><g transform="translate(-110,-78) scale(1,1)"><path fill="none" stroke="#000000" d="M 730.17333984375 219.64 L 717.4097034801136 237" stroke-miterlimit="10"/></g><g transform="translate(-110,-78) scale(1,1)"><path fill="none" stroke="#000000" d="M 730.17333984375 219.64 L 742.9369762073864 237" stroke-miterlimit="10"/></g><g transform="translate(-110,-78) scale(1,1)"><g><path fill="none" stroke="none"/><text fill="#000000" stroke="none" font-family="Arial" font-size="13px" font-style="normal" font-weight="bold" text-decoration="none" x="695.10888671875" y="257.5">Перевозчик</text></g></g><g transform="translate(-110,-78) scale(1,1)"><path fill="#C0C0C0" stroke="none" d="M 447 264 C 447 254.6111584 489.3090864 247 541.5 247 C 593.6909136 247 636 254.6111584 636 264 C 636 273.3888416 593.6909136 281 541.5 281 C 489.3090864 281 447 273.3888416 447 264 Z" opacity="0.2"/></g><g transform="translate(-110,-78) scale(1,1)"><path fill="#ffffff" stroke="none" d="M 440 257 C 440 247.6111584 482.3090864 240 534.5 240 C 586.6909136 240 629 247.6111584 629 257 C 629 266.3888416 586.6909136 274 534.5 274 C 482.3090864 274 440 266.3888416 440 257 Z"/></g><g transform="translate(-110,-78) scale(1,1)"><path fill="none" stroke="#000000" d="M 440 257 C 440 247.6111584 482.3090864 240 534.5 240 C 586.6909136 240 629 247.6111584 629 257 C 629 266.3888416 586.6909136 274 534.5 274 C 482.3090864 274 440 266.3888416 440 257 Z" stroke-miterlimit="10"/></g><g transform="translate(-110,-78) scale(1,1)"><g><path fill="none" stroke="none"/><text fill="#000000" stroke="none" font-family="Arial" font-size="13px" font-style="normal" font-weight="bold" text-decoration="none" x="474.524169921875" y="264">Размещение заказа</text></g></g></g></svg>