<svg version="1.1" xmlns="http://www.w3.org/2000/svg" xmlns:xlink="http://www.w3.org/1999/xlink" width="350.919921875" height="174"><defs/><g><g transform="translate(-366,-414) scale(1,1)"><rect fill="#C0C0C0" stroke="none" x="383" y="455" width="89.57080078125" height="130" opacity="0.2"/></g><g transform="translate(-366,-414) scale(1,1)"><rect fill="#ffffff" stroke="none" x="376" y="448" width="89.57080078125" height="130"/></g><g transform="translate(-366,-414) scale(1,1)"><path fill="none" stroke="#000000" d="M 376 448 L 465.57080078125 448 L 465.57080078125 578 L 376 578 L 376 448 Z Z" stroke-miterlimit="10"/></g><g transform="translate(-366,-414) scale(1,1)"><path fill="none" stroke="#000000" d="M 376 473 L 465.57080078125 473" stroke-miterlimit="10"/></g><g transform="translate(-366,-414) scale(1,1)"><path fill="none" stroke="#000000" d="M 376 526 L 465.57080078125 526" stroke-miterlimit="10"/></g><g transform="translate(-366,-414) scale(1,1)"><g><path fill="none" stroke="none"/><text fill="#000000" stroke="none" font-family="Arial" font-size="13px" font-style="normal" font-weight="bold" text-decoration="none" x="400.917236328125" y="467.5">Class1</text></g></g><g transform="translate(-366,-414) scale(1,1)"><g><path fill="none" stroke="none"/><text fill="#000000" stroke="none" font-family="Arial" font-size="13px" font-style="normal" font-weight="normal" text-decoration="none" x="381" y="490.5">+Attribute1</text></g></g><g transform="translate(-366,-414) scale(1,1)"><g><path fill="none" stroke="none"/><text fill="#000000" stroke="none" font-family="Arial" font-size="13px" font-style="normal" font-weight="normal" text-decoration="none" x="381" y="505.5">+Attribute2</text></g></g><g transform="translate(-366,-414) scale(1,1)"><g><path fill="none" stroke="none"/><text fill="#000000" stroke="none" font-family="Arial" font-size="13px" font-style="normal" font-weight="normal" text-decoration="none" x="381" y="520.5">+Attribute3</text></g></g><g transform="translate(-366,-414) scale(1,1)"><g><path fill="none" stroke="none"/><text fill="#000000" stroke="none" font-family="Arial" font-size="13px" font-style="normal" font-weight="normal" text-decoration="none" x="381" y="543.5">+Operation1()</text></g></g><g transform="translate(-366,-414) scale(1,1)"><g><path fill="none" stroke="none"/><text fill="#000000" stroke="none" font-family="Arial" font-size="13px" font-style="normal" font-weight="normal" text-decoration="none" x="381" y="558.5">+Operation2()</text></g></g><g transform="translate(-366,-414) scale(1,1)"><g><path fill="none" stroke="none"/><text fill="#000000" stroke="none" font-family="Arial" font-size="13px" font-style="normal" font-weight="normal" text-decoration="none" x="381" y="573.5">+Operation3()</text></g></g><g transform="translate(-366,-414) scale(1,1)"><rect fill="#C0C0C0" stroke="none" x="663" y="431" width="50.919921875" height="44" opacity="0.2"/></g><g transform="translate(-366,-414) scale(1,1)"><rect fill="#ffffff" stroke="none" x="656" y="424" width="50.919921875" height="44"/></g><g transform="translate(-366,-414) scale(1,1)"><path fill="none" stroke="#000000" d="M 656 424 L 706.919921875 424 L 706.919921875 468 L 656 468 L 656 424 Z Z" stroke-miterlimit="10"/></g><g transform="translate(-366,-414) scale(1,1)"><path fill="none" stroke="#000000" d="M 656 449 L 706.919921875 449" stroke-miterlimit="10"/></g><g transform="translate(-366,-414) scale(1,1)"><path fill="none" stroke="#000000" d="M 656 459 L 706.919921875 459" stroke-miterlimit="10"/></g><g transform="translate(-366,-414) scale(1,1)"><g><path fill="none" stroke="none"/><text fill="#000000" stroke="none" font-family="Arial" font-size="13px" font-style="normal" font-weight="bold" text-decoration="none" x="661.591796875" y="443.5">Class2</text></g></g><g transform="translate(-366,-414) scale(1,1)"><path fill="none" stroke="#000000" d="M 467 501 L 655 453" stroke-miterlimit="10"/></g></g></svg>